Coordinates
version=1
nRows=54
nColumns=12
inDegrees=yes

Units are S.I. units (second, meters, Newtons, ...)
Angles are in degrees

endheader
time	SC_y	SC_z	SC_x	AC_y	AC_z	AC_x	GH_y	GH_z	GH_yy	EL_x	PS_y
       0.0              -19.47          19.17          55.55          43.97        -0.3768          19.53           48.6          64.09         -170.9          84.97          26.24
   0.01418              -19.47          19.17          55.55          43.97        -0.3763          19.53          48.58          64.09         -170.9          84.96          26.24
   0.02837              -19.47          19.17          55.55          43.97        -0.3757          19.53          48.55          64.09         -170.8          84.95          26.24
   0.04255              -19.47          19.18          55.55          43.97        -0.3752          19.53          48.52          64.09         -170.8          84.94          26.23
   0.05674              -19.47          19.18          55.55          43.97        -0.3745          19.53          48.49          64.09         -170.7          84.93          26.23
   0.07092              -19.47          19.18          55.55          43.97        -0.3739          19.52          48.45          64.09         -170.7          84.92          26.23
   0.08511              -19.47          19.19          55.55          43.97        -0.3732          19.52          48.42          64.09         -170.6          84.91          26.23
   0.09929              -19.47          19.19          55.55          43.97        -0.3724          19.52          48.38          64.09         -170.5           84.9          26.23
    0.1135              -19.47           19.2          55.55          43.97        -0.3716          19.52          48.34           64.1         -170.5          84.89          26.23
    0.1277              -19.47           19.2          55.55          43.98        -0.3707          19.52          48.29           64.1         -170.4          84.88          26.23
    0.1418              -19.47          19.21          55.55          43.98        -0.3698          19.51          48.24           64.1         -170.3          84.86          26.23
     0.156              -19.47          19.21          55.56          43.98        -0.3688          19.51          48.19           64.1         -170.2          84.85          26.23
    0.1702              -19.48          19.22          55.56          43.98        -0.3677          19.51          48.14           64.1         -170.1          84.83          26.23
    0.1844              -19.48          19.22          55.56          43.98        -0.3665          19.51          48.08           64.1         -170.0          84.81          26.23
    0.1986              -19.48          19.23          55.56          43.98        -0.3653           19.5          48.01           64.1         -169.9          84.79          26.22
    0.2128              -19.48          19.24          55.56          43.98        -0.3639           19.5          47.94           64.1         -169.8          84.77          26.22
     0.227              -19.48          19.25          55.56          43.98        -0.3624           19.5          47.87          64.11         -169.6          84.75          26.22
    0.2411              -19.48          19.25          55.56          43.99        -0.3608          19.49          47.78          64.11         -169.5          84.73          26.22
    0.2553              -19.49          19.26          55.56          43.99         -0.359          19.49          47.69          64.11         -169.3           84.7          26.22
    0.2695              -19.49          19.27          55.56          43.99         -0.357          19.48          47.59          64.11         -169.2          84.67          26.22
    0.2837              -19.49          19.29          55.56          43.99        -0.3549          19.48          47.48          64.11         -169.0          84.64          26.21
    0.2979              -19.49           19.3          55.56           44.0        -0.3526          19.47          47.36          64.12         -168.8           84.6          26.21
    0.3121              -19.49          19.31          55.57           44.0          -0.35          19.46          47.23          64.12         -168.5          84.56          26.21
    0.3263               -19.5          19.33          55.57           44.0        -0.3471          19.46          47.08          64.12         -168.3          84.52          26.21
    0.3404               -19.5          19.34          55.57          44.01        -0.3439          19.45          46.92          64.13         -168.0          84.47           26.2
    0.3546               -19.5          19.36          55.57          44.01        -0.3403          19.44          46.73          64.13         -167.6          84.42           26.2
    0.3688              -19.51          19.38          55.57          44.02        -0.3363          19.43          46.53          64.13         -167.3          84.36          26.19
     0.383              -19.51          19.41          55.57          44.02        -0.3318          19.42           46.3          64.14         -166.9          84.29          26.19
    0.3972              -19.52          19.44          55.58          44.03        -0.3267          19.41          46.04          64.14         -166.4          84.21          26.18
    0.4114              -19.53          19.47          55.58          44.03         -0.321          19.39          45.74          64.15         -165.9          84.13          26.18
    0.4255              -19.53           19.5          55.58          44.04        -0.3144          19.38           45.4          64.16         -165.3          84.03          26.17
    0.4397              -19.54          19.54          55.59          44.05        -0.3068          19.36          45.01          64.17         -164.6          83.92          26.16
    0.4539              -19.55          19.59          55.59          44.06        -0.2981          19.33          44.57          64.18         -163.8          83.78          26.15
    0.4681              -19.56          19.64           55.6          44.07         -0.288          19.31          44.05          64.19         -162.9          83.63          26.14
    0.4823              -19.57          19.71           55.6          44.09        -0.2761          19.28          43.44           64.2         -161.9          83.45          26.13
    0.4965              -19.59          19.78          55.61           44.1        -0.2621          19.24          42.72          64.21         -160.6          83.24          26.12
    0.5107               -19.6          19.87          55.62          44.12        -0.2455           19.2          41.87          64.23         -159.1          82.99           26.1
    0.5248              -19.63          19.97          55.63          44.14        -0.2256          19.15          40.85          64.25         -157.3          82.69          26.08
     0.539              -19.65           20.1          55.64          44.17        -0.2015          19.09          39.61          64.28         -155.1          82.33          26.05
    0.5532              -19.68          20.26          55.66          44.21         -0.172          19.02           38.1          64.31         -152.5          81.89          26.02
    0.5674              -19.72          20.45          55.68          44.25        -0.1357          18.93          36.23          64.35         -149.2          81.34          25.98
    0.5816              -19.77          20.69           55.7           44.3       -0.09037          18.81          33.91           64.4         -145.1          80.66          25.94
    0.5958              -19.83           21.0          55.73          44.37       -0.03329          18.67          30.98          64.46         -140.0           79.8          25.88
    0.6099               -19.9          21.39          55.77          44.45        0.03928          18.49          27.26          64.54         -133.5          78.71           25.8
    0.6241               -20.0          21.88          55.82          44.56         0.1322          18.25          22.49          64.64         -125.1          77.32           25.7
    0.6383              -20.13          22.52          55.88           44.7         0.2514          17.95          16.38          64.77         -114.4          75.53          25.58
    0.6525              -20.29          23.33          55.97          44.88         0.4036          17.57          8.564          64.94         -100.7          73.24          25.42
    0.6667              -20.49          24.35          56.07           45.1          0.595          17.09         -1.258          65.15         -83.42          70.36          25.21
    0.6809              -20.74          25.59          56.19          45.37         0.8283           16.5         -13.23           65.4         -62.42          66.85          24.97
    0.6951              -21.02          27.03          56.33          45.69          1.099          15.82          -27.1          65.69         -38.07          62.79          24.68
    0.7092              -21.33          28.59          56.49          46.03          1.392          15.08         -42.12          66.01          -11.7          58.39          24.38
    0.7234              -21.64          30.15          56.65          46.37          1.684          14.35         -57.15          66.33          14.67          53.99          24.07
    0.7376              -21.92          31.59          56.79          46.69          1.955          13.67         -71.02          66.62          39.02          49.92          23.78
    0.7518              -22.17          32.83          56.91          46.96          2.188          13.08         -82.99          66.88          60.02          46.42          23.54
